<mxfile host="app.diagrams.net" modified="2021-07-02T13:38:07.584Z" agent="5.0 (Macintosh; Intel Mac OS X 10_13_6) AppleWebKit/537.36 (KHTML, like Gecko) Chrome/91.0.4472.124 Safari/537.36" etag="9d1GnQiR8_K98gIiDM2d" version="14.8.3" type="github">
  <diagram id="1gZoEgQrW1XzMQ9bYFub" name="Page-1">
    <mxGraphModel dx="1426" dy="918" grid="1" gridSize="10" guides="1" tooltips="1" connect="1" arrows="1" fold="1" page="1" pageScale="1" pageWidth="1920" pageHeight="1200" math="0" shadow="0">
      <root>
        <mxCell id="0" />
        <mxCell id="1" parent="0" />
        <mxCell id="rzQKBcg07bodUtC2ypfw-2" value="" style="rounded=0;whiteSpace=wrap;html=1;fillColor=#A259FF;strokeWidth=3;sketch=0;" vertex="1" parent="1">
          <mxGeometry x="110" y="400" width="1650" height="360" as="geometry" />
        </mxCell>
      </root>
    </mxGraphModel>
  </diagram>
</mxfile>
